
****** Management.2008.DVDRiP.XViD.OPTIONAL.NORDIC-Zen_Bud ******

Format                           : AVI
File size                        : 700 MiB
Duration                         : 1h 29mn
Overall bit rate                 : 1 092 Kbps
Writing application              : VirtualDubMod 1.5.4.1 (build 2178/release)
Writing library                  : VirtualDubMod build 2178/release

Video

Format                           : MPEG-4 Visual
Codec ID/Hint                    : XviD
Duration                         : 1h 29mn
Bit rate                         : 956 Kbps
Width                            : 672 pixels
Height                           : 368 pixels
Display aspect ratio             : 16:9
Stream size                      : 614 MiB (88%)
Writing library                  : XviD 1.2.1 (UTC 2008-12-04)

Audio

Format                           : MPEG Audio
Codec ID/Hint                    : MP3
Duration                         : 1h 29mn
Bit rate                         : 128 Kbps
Channel(s)                       : 2 channels
Sampling rate                    : 48.0 KHz
Stream size                      : 82.1 MiB (12%)
Writing library                  : LAME3.98r
Language                         : English

Text #1
Language                         : Danish

Text #2
Language                         : Finnish

Text #3
Language                         : Norwegian

Text #4
Language                         : Swedish
